<?xml version="1.0" encoding="iso-8859-1"?>
<!-- Uploaded to: SVG Repo, www.svgrepo.com, Generator: SVG Repo Mixer Tools -->
<svg version="1.1" id="Layer_1" xmlns="http://www.w3.org/2000/svg" xmlns:xlink="http://www.w3.org/1999/xlink" 
	 viewBox="0 0 451.296 451.296" xml:space="preserve">
<circle style="fill:#45B39C;" cx="225.648" cy="225.638" r="225.638"/>
<path style="opacity:0.1;enable-background:new    ;" d="M447.337,267.671L330.754,151.089c-0.826-1.059-1.962-1.903-3.441-2.262
	l-59.893-14.95l-26.938-26.938c-3.808-3.807-10.014-3.807-13.822,0l-1.786,1.787l-10.484-10.484c-2.492-2.539-6.582-2.539-9.12,0
	l-23.365,23.365c-2.492,2.492-2.492,6.581,0,9.12l10.484,10.484l-1.739,1.787c-3.855,3.808-3.855,10.013,0,13.822l3.056,3.056
	l-44.379,44.379c-1.739-0.377-3.573-0.612-5.453-0.612c-13.68,0-24.728,11.048-24.728,24.728c0,9.074,4.889,16.877,12.129,21.202
	v73.855h-0.235c-5.971,0-10.766,4.843-10.766,10.766v20.732l96.136,96.136c3.068,0.123,6.141,0.233,9.24,0.233
	C335.904,451.296,427.634,372.202,447.337,267.671z"/>
<path style="fill:#64798A;" d="M244.915,318.171c0-2.646-2.144-4.791-4.79-4.791h-26.346c-2.646,0-4.791,2.145-4.791,4.791v5.272
	h35.927V318.171z"/>
<g>
	<path style="fill:#3A556A;" d="M166.237,217.898l42.735-42.736l-15.274-15.274l-44.377,44.377
		C156.848,205.957,163.029,211.076,166.237,217.898z"/>
	<path style="fill:#3A556A;" d="M152.854,251.403c-2.788,1.087-5.797,1.738-8.97,1.738c-4.635,0-8.922-1.353-12.631-3.569v73.871
		h21.601V251.403z"/>
</g>
<path style="fill:#64798A;" d="M214.411,98.249c-2.526-2.526-6.622-2.525-9.147,0l-23.341,23.341c-2.526,2.526-2.526,6.622,0,9.148
	l10.481,10.481l32.488-32.488L214.411,98.249z"/>
<path style="fill:#D5D6DB;" d="M217.565,183.756l49.863-49.863l-26.934-26.935c-3.819-3.818-10.011-3.82-13.83,0l-1.773,1.772
	l-32.488,32.488l-1.772,1.773c-3.819,3.819-3.819,10.011,0,13.83l3.066,3.067l15.274,15.274L217.565,183.756z"/>
<path style="fill:#64798A;" d="M327.296,148.803l-59.868-14.91l-49.863,49.863l14.911,59.867c1.208,4.848,7.243,6.522,10.775,2.99
	l87.035-87.034C333.818,156.046,332.143,150.011,327.296,148.803z"/>
<path style="fill:#F6C358;" d="M269.518,220.346c9.527,9.527,24.974,9.527,34.501,0c9.527-9.527,9.527-24.974,0-34.502
	L269.518,220.346z"/>
<path style="fill:#EBF0F3;" d="M269.818,323.443h-24.904h-35.927h-56.134h-21.601h-0.227c-5.94,0-10.755,4.816-10.755,10.756v12.339
	h160.302v-12.339C280.573,328.26,275.758,323.443,269.818,323.443z"/>
<rect x="120.268" y="346.522" style="fill:#D5D6DB;" width="160.307" height="8.381"/>
<path style="fill:#64798A;" d="M152.854,251.403c9.227-3.599,15.789-12.52,15.789-23.022c0-3.762-0.904-7.29-2.406-10.483
	c-3.208-6.822-9.389-11.942-16.916-13.633c-1.755-0.395-3.564-0.643-5.437-0.643c-13.674,0-24.759,11.085-24.759,24.759
	c0,9.04,4.895,16.867,12.128,21.19c3.709,2.216,7.996,3.569,12.631,3.569C147.057,253.141,150.065,252.49,152.854,251.403z
	 M143.884,214.636c7.592,0,13.746,6.154,13.746,13.745c0,7.592-6.154,13.747-13.746,13.747s-13.746-6.154-13.746-13.747
	C130.138,220.791,136.292,214.636,143.884,214.636z"/>
<circle style="fill:#3A556A;" cx="143.882" cy="228.403" r="13.747"/>
</svg>